<?xml version="1.0" encoding="UTF-8"?>
<svg id="OBJECTS" xmlns="http://www.w3.org/2000/svg" version="1.1" viewBox="0 0 1162.2 1080">
  <!-- Generator: Adobe Illustrator 29.6.1, SVG Export Plug-In . SVG Version: 2.1.1 Build 9)  -->
  <defs>
    <style>
      .st0, .st1, .st2, .st3, .st4, .st5, .st6, .st7, .st8, .st9, .st10, .st11, .st12, .st13, .st14, .st15 {
        stroke: #1e344a;
      }

      .st0, .st1, .st2, .st3, .st4, .st5, .st7, .st8, .st11, .st12, .st14, .st15 {
        stroke-width: 2px;
      }

      .st0, .st1, .st2, .st8, .st12, .st15 {
        stroke-linejoin: round;
      }

      .st0, .st3 {
        fill: #e3e3e3;
      }

      .st1 {
        fill: #993939;
      }

      .st2, .st16 {
        fill: #e8bb51;
      }

      .st3, .st4, .st5, .st17, .st6, .st7, .st9, .st10, .st11, .st13, .st14 {
        stroke-miterlimit: 10;
      }

      .st4 {
        fill: #74bc66;
      }

      .st18 {
        fill: #1e344a;
      }

      .st5, .st19 {
        fill: #fff;
      }

      .st20 {
        fill: #c4007b;
        opacity: 0;
      }

      .st17 {
        stroke: #fff;
      }

      .st17, .st11, .st13 {
        fill: none;
      }

      .st6, .st9 {
        fill: #eed58c;
        stroke-width: 2.9px;
      }

      .st7 {
        fill: #365d8d;
      }

      .st8 {
        fill: #a23d3d;
      }

      .st21 {
        opacity: .5;
      }

      .st21, .st12 {
        fill: #afafaf;
      }

      .st22, .st23 {
        fill: #66b4bf;
      }

      .st9 {
        stroke-linecap: round;
      }

      .st23 {
        opacity: .2;
      }

      .st10 {
        stroke-width: 1.3px;
      }

      .st10, .st14, .st24 {
        fill: #a6d97d;
      }

      .st25 {
        fill: #4980a9;
      }

      .st13 {
        stroke-width: 6px;
      }

      .st15 {
        fill: #d65555;
      }

      .st24 {
        opacity: .3;
      }
    </style>
  </defs>
  <path class="st24" d="M560.6,213.7s80.8-79.3,147.8-34.6c67,44.7,67,76.8,113.1,83.8,46.1,7,141-43.3,191.3,19.5,50.3,62.8-62.8,243-33.5,284.9,29.3,41.9,107.5-4.2,113.1,88,5.6,92.2-125.7,113.1-122.9,152.2,2.8,39.1,36.3,74-9.8,90.8-46.1,16.8-374.2,22.3-374.2,22.3l-308.6-15.4s-159.2-96.3-150.8-213.6c8.4-117.3,156.4-143.8,135.4-227.6-20.9-83.8-97.7-121.5-57.2-171.7,47-58.3,141,25.1,203.9-7,54.8-28,13.1-78.8,75-98,61.9-19.3,77.4,26.5,77.4,26.5Z"/>
  <path class="st2" d="M268.5,860.5h582.3s212.2-11.2,237.4,33.5c25.1,44.7-249.9,41.9-258.3,68.4-8.4,26.5,132.7,46.1,132.7,74s-69.8,19.5-379.8,22.3c-148,1.3-277.2,10.5-277.2-12.6s101.2-22.3,105.4-44.7c4.2-22.3-283.5-7-283.5-34.9s72.6,1.4,75.4-26.5c2.8-27.9-122.9-12.6-115.9-47.5,7-34.9,181.5-32.1,181.5-32.1Z"/>
  <g>
    <g>
      <path class="st22" d="M429.9,882c-12.3,0-16.1-.3-17.2-.5-.3-6.8-3.5-57.6-7-111.1-1.6-24.9-3.2-49.9-4.5-70.5-4.1-65.2-2.1-143.6-2.1-144.4h0c0,0-12.4-74.7-12.4-74.7,5.3-1.5,33.8-9.3,45-10.2l12.5-1,276.4,14.7c.1,0,4.8-.2,11.4-.2,10.3,0,24.6.4,34.5,2.2l32.6,6.1-59.4,380.5c-15.6.6-243.5,9.2-309.8,9.2Z"/>
      <path class="st18" d="M444.2,470.5l276.3,14.7h0s0,0,0,0c0,0,4.7-.2,11.3-.2,10.2,0,24.5.4,34.3,2.2l31.6,5.9-59.1,378.7c-21.4.8-243.7,9.2-308.9,9.2s-14.6-.2-16.3-.4c-.5-9.5-3.6-58.6-6.9-110.3-1.6-24.9-3.2-49.9-4.5-70.5-4.1-65.1-2.1-143.6-2.1-144.3v-.2s0-.2,0-.2l-12.3-73.6c7-1.9,33.4-9,44-9.9l12.4-1M444.1,468.5l-12.6,1c-12.6,1-46.1,10.5-46.1,10.5l12.6,75.4s-2.1,78.5,2.1,144.5c4.2,66,11.5,178,11.5,182.2s6.7.9,18.2.9c69,0,310.6-9.2,310.6-9.2l59.7-382.2s-16.8-3.1-33.5-6.3c-10.1-1.9-24.6-2.3-34.7-2.3s-11.4.2-11.4.2l-276.5-14.7h0Z"/>
    </g>
    <g>
      <path class="st25" d="M717.4,720.5c-.2-5.5-1.5-65,8.4-112.5,10.4-49.8,50.8-112.4,74.6-115.5,1.2-.2,2.4-.2,3.6-.2,22.2,0,33,29.9,33,91.4s-21.1,209-23.8,227.3l-95.7-90.6Z"/>
      <path class="st18" d="M803.9,493.3c21.5,0,32,29.6,32,90.4s-19.9,200.6-23.5,225.3l-94-88.9c-.2-7.5-1.3-65.4,8.4-111.8,4.9-23.4,16.9-51.4,32.3-75.1,15.2-23.4,30.6-38.2,41.4-39.6,1.2-.2,2.4-.2,3.5-.2M803.9,491.3c-1.2,0-2.5,0-3.7.3-24.1,3.1-64.9,66-75.4,116.2-10.5,50.3-8.4,113.1-8.4,113.1l97.4,92.2s24.1-160.2,24.1-229.3-12.2-92.4-34-92.4h0Z"/>
    </g>
    <g>
      <path class="st25" d="M286.1,700.3c2-8.6,17.6-71.9,43.7-131.9,24.6-56.5,50.9-82,56.8-87.2l15.5,68.7c1.5,6.7,2.2,13.5,2.1,20.4l-2.9,156.7-115.1-26.7Z"/>
      <path class="st18" d="M386,483.1l15.1,67c1.5,6.6,2.2,13.4,2.1,20.2l-2.9,155.5-112.9-26.2c2.8-11.6,18.2-72.8,43.4-130.7,23.1-53,47.6-78.6,55.3-85.7M387.2,479.3s-30,23.7-58.3,88.7c-28.3,64.9-44,133-44,133l117.3,27.2,2.9-157.9c.1-6.9-.6-13.9-2.1-20.6l-15.9-70.3h0Z"/>
    </g>
    <g>
      <path class="st6" d="M685,476.9c-24.7-8.5-36.3-20.5-39.7-24.7-2.7-20.2,2.8-44,2.8-44l-130.3,8.4s8.7,8.1,10.9,23.5c0,0-2.3,17.4-26.4,24.7s-53.1,5.1-53.1,5.1c0,0,18.2,104.5,122.8,110.5,108.9,6.3,148.1-95.2,148.1-95.2,0,0-20.3-3.4-35-8.5Z"/>
      <path class="st18" d="M517.7,416.7l130.3-8.4s-26.3,80.9-60.5,83.7c-34.2,2.8-59-51.7-59-51.7l-10.9-23.5Z"/>
    </g>
    <g>
      <path class="st18" d="M472.1,290.4s-32.8,0-39.1-16.3c-6.3-16.3.4-25.1.4-25.1,0,0-18-3.6-18.7-20.4-.7-16.8,6.2-29.8,6.2-29.8,0,0-18.2-13.8-17.6-29.4.8-23,20.9-32,20.9-32,0,0-17.2-23.1,3.7-37.6s41.9,1.8,41.9,1.8c0,0-11.2-31.9,13.5-37.2,24.7-5.2,41.1,3.1,41.1,3.1,0,0,26.3-27.5,50.1-27.2,23.7.3,33,30,33,30,0,0,24.5-17.8,50.5-4.8,26,13,20.5,27.4,20.5,27.4,0,0,46.5-9.2,63.9,8.3,17.4,17.5,2.1,33.6,2.1,33.6,0,0,34.4-4.8,41.6,24.1,7.2,29-12.8,37.9-12.8,37.9,0,0,16.2,29.3,2.1,49.7-14.1,20.4-28,18.4-28,18.4,0,0,3.5,16.2-11.9,34.4-15.4,18.2-51.1,18.1-51.1,18.1l-212-27.2Z"/>
      <path class="st15" d="M480.1,368.3c-9.2,2.2-21.1-14.5-26.7-37.4-5.5-22.9-2.5-43.2,6.7-45.4l16.9-2.1,17.7,83.1-14.6,1.8Z"/>
      <ellipse class="st8" cx="484.8" cy="325.2" rx="17.2" ry="42.6" transform="translate(-62.7 122.5) rotate(-13.5)"/>
      <path class="st6" d="M477.4,231.9s-3.3,60.7.9,76.9c4.2,16.3,8.6,29,8.6,29,0,0,.6,26,9.9,46.5,26.2,57.7,77.9,73.9,77.9,73.9,0,0,45.5-17.6,73.4-50,27.9-32.4,23.9-70.3,23.9-70.3l9-81.4-51.8-80.5-114.9,23.8-37,32Z"/>
      <path class="st18" d="M650,288.1s-21.5-8.8-38.3-7.7c-9.4.6-16.4,4.3-20.6,7.4-2.9,2.1-7,1.2-8.8-1.8h0c-1.7-2.8-.8-6.4,1.9-8.2,5.6-3.8,15.8-9.1,28.5-8.5,25.1,1.1,37.4,18.8,37.4,18.8Z"/>
      <path class="st5" d="M589.5,331s11-11.1,24.6-12.6c13.7-1.5,27.1,3.9,27.1,3.9,0,0-6.8,12.3-24.4,15-17.6,2.7-27.3-6.4-27.3-6.4Z"/>
      <path class="st5" d="M496.1,335.5s5.5-9.3,22.3-9c16.8.3,27.7,9.6,27.7,9.6,0,0-8.1,6.3-25.9,7.4-13.4.8-24.1-8-24.1-8Z"/>
      <path class="st18" d="M480,298.7s18-9,30.2-10.2c12.1-1.1,19.7,3.4,19.7,3.4,3.1.5,6.1-1.2,7.2-4.1h0c1.4-3.7-.8-7.8-4.6-8.7-6.8-1.6-17.6-2.9-28.4.6-17.9,5.8-24,18.9-24,18.9Z"/>
      <path class="st11" d="M555.2,341.7l-7.1,36.4s7.6,2.4,14.3,0c6.7-2.5,11.1-6.5,11.1-6.5"/>
      <path class="st15" d="M559.1,402.9s-.9-6.4,7.5-8.4c15.2-3.6,21.3,1.8,29.3.4s13.2-5.3,13.2-5.3c0,0-5,12.4-27.3,15.4-22.3,3-22.6-2.2-22.6-2.2Z"/>
      <path class="st15" d="M565,406.4s4.9,9.7,12.6,10.5c19.8,2.1,28.1-22,28.1-22,0,0-11.4,8-24,10.2-12.6,2.2-16.7,1.4-16.7,1.4Z"/>
      <path class="st10" d="M504.2,339.6s2.5-9,13-8.9c10.5,0,14.2,11.1,14.2,11.1,0,0-6.7,1.8-15.1,1.1-8.4-.7-12.1-3.3-12.1-3.3Z"/>
      <path class="st10" d="M599.1,335.6s2.5-10,14.8-11.3c12.3-1.2,15.7,9.1,15.7,9.1,0,0-6.5,3.9-16.6,4.9-10.2,1-13.9-2.7-13.9-2.7Z"/>
      <path class="st15" d="M707.2,274.5c.3-3,.6-6,.7-9.1,2.9-68.6-50.3-126.5-118.9-129.4-43.2-1.8-82.2,18.7-105.9,51.2,23.5-22.2,55.6-35.2,90.5-33.7,65.5,2.8,117,55.8,118.9,120.3l14.6.6Z"/>
      <path class="st18" d="M491.5,178s-27.3,35.2-29.5,54-15.9,28.7-3.7,38.3c12.2,9.6,18.8,1.5,18.8,1.5,0,0,8.8-9.4,14.7-18.2,6-8.8,3.5-15.9,3.5-15.9,0,0,12.7,14.5,32.6,6.3,19.9-8.2,32.7-30.1,32.7-30.1,0,0,6.4,14.9,23.3,11.5,16.9-3.5,18.7-11.8,18.7-11.8,0,0-3,20.8,14.3,25.8,17.3,4.9,24-6,24-6,0,0-4.4,20.8,9.4,25.6s17.9,7,17.9,7c0,0-9.5,10.8-4.2,15.9,5.4,5.1,19.9,7.8,19.9,7.8l8.7-15.7s8.4-26.2,0-41.9c-8.4-15.7-18.1-17.5-18.1-17.5,0,0-4.5-26.7-20.1-37.9-15.6-11.1-25.5-8.1-25.5-8.1,0,0-26.4-20-43.1-22.1-16.7-2.1-24.7,5.9-24.7,5.9,0,0-22.2-3-34.3,2-12.1,5.1-22.4,17.9-22.4,17.9l-12.8,5.7Z"/>
      <path class="st23" d="M494.7,202.4s-2.8,33,18.6,32.6c21.4-.5,47.5-38.6,47.5-38.6,0,0,2.8,19.5,19.5,18.6,16.8-.9,22.3-21.9,22.3-21.9,0,0-14.4,16.8-24.2,7.9-9.8-8.8-14-26.5-14-26.5,0,0-35,44-50.3,41.4-16.8-2.8-19.5-13.5-19.5-13.5Z"/>
      <path class="st23" d="M480.8,245.4s-12.6,16.1-25.1,4.9c-12.6-11.2,1.4-35.6,1.4-35.6,0,0-20.2,33.5-7.7,47.5,12.6,14,31.4-16.8,31.4-16.8Z"/>
      <path class="st23" d="M435.4,189.6s-14-4.9-8.4-23c5.6-18.2,25.1-14.7,25.1-14.7,0,0-20.9-19.5-9.1-29.3,11.9-9.8,37,2.8,37,2.8,0,0-26.5-29.3-41.2-18.2-14.7,11.2-3.5,36.3-3.5,36.3,0,0-17.7,2.3-21.6,19.5-5.6,24.4,21.6,26.5,21.6,26.5Z"/>
      <path class="st20" d="M643.7,354.2c.4,5.4-7.5,10.4-17.6,11.3-10.2.8-18.8-2.8-19.2-8.2-.4-5.4,7.5-10.4,17.6-11.3s18.8,2.8,19.2,8.2Z"/>
      <path class="st20" d="M536.2,363.4c-.5,5.4-9.1,9-19.3,8.2-10.2-.9-18.1-5.9-17.6-11.3.5-5.4,9.1-9,19.3-8.2,10.2.9,18.1,5.9,17.6,11.3Z"/>
      <g>
        <path class="st13" d="M482.1,316.9c-.5-4,2.4-7.6,6.4-8,7-.7,18.4-1.2,31,.2,20.9,2.3,30.1,3.6,32.7,9.8,2.5,6.2,1,31.7-5.3,37.5-6.3,5.8-43.9,3.3-53-1.8-6.7-3.7-10.3-26-11.8-37.7Z"/>
        <path class="st13" d="M578.3,311.1c-4.6.9-7.7,5.2-6.9,9.9,2,11.9,14.1,34.2,20.7,35.5,9.2,1.8,49.5-2.6,53-8.5,3.5-5.9,9.3-43.9,2.4-46.5-5.4-2.1-50.5,6.1-69.2,9.6Z"/>
        <line class="st13" x1="553.7" y1="327.4" x2="571.9" y2="326.3"/>
        <line class="st13" x1="650.1" y1="316.5" x2="680.6" y2="289"/>
      </g>
      <path class="st8" d="M676.9,354.6c-9.4-1.1-14.8-20.9-12.1-44.3,2.7-23.4,12.6-41.4,22-40.3l16.5,3.9-12.2,84.1-14.3-3.4Z"/>
      <ellipse class="st15" cx="696.2" cy="315.8" rx="42.6" ry="17.2" transform="translate(301.2 970.2) rotate(-83.3)"/>
    </g>
    <path class="st7" d="M284.9,701s62.7,6.4,72.5-29.9c9.8-36.3-30.3-37.2-16.8-61,13.5-23.7,30.7-11.6,34-41,3.3-29.3-19.1-48.9-19.1-48.9,0,0-23.3,37.7-41,86.1-17.7,48.4-29.7,94.6-29.7,94.6Z"/>
    <path class="st7" d="M747.5,550.5s45.4,26.5,48.9,69.1c3.5,42.6-30,18.2-31.4,49.6-1.4,31.4,23,30,16.8,55.9-6.3,25.8-65.3-4.2-65.3-4.2,0,0-1.7-44.7,4.5-88,6.3-43.3,26.5-82.4,26.5-82.4Z"/>
    <g>
      <path class="st6" d="M555.1,578.5s78.5,183.3,137.2,233.5c58.6,50.3,111,74.4,118.3,48.2,7.3-26.2,17.8-46.1-20.9-113.1-38.7-67-183.3-192.7-183.3-192.7,0,0,11.7-83-1-93.2-8.7-7-62.8-8.4-69.1-2.1-6.3,6.3-24.1,77.5-15.7,74.4,8.4-3.1,23-44,23-44h13.6s-12.6,38.7-10.5,55.5c2.1,16.8,8.4,33.5,8.4,33.5Z"/>
      <path class="st9" d="M541.5,475.1s2.8,5.6,2.1,11.9c-.7,6.3-2.1,8-2.1,8"/>
      <path class="st9" d="M566,475.8s-5.6,5.2-7.7,10.5c-2.1,5.2-3.8,14.3-3.8,14.3"/>
    </g>
    <path class="st20" d="M562.5,592.1s76.4,18.9,101.6,69.1c25.1,50.3,7.3,80.6,27.2,107.9,19.9,27.2,49.2,23,62.8,46.1,13.6,23,6.3,44,6.3,44,0,0-40.8-13.6-85.9-67-45-53.4-60.7-92.2-60.7-92.2l-51.3-107.9Z"/>
  </g>
  <g>
    <polygon class="st0" points="716.4 937.7 752 883.2 716.4 883.2 716.4 937.7"/>
    <path class="st12" d="M752,883.2v3.5c0,8.4-2.3,16.6-6.9,23.7l-22.5,34.5c-3.9,6-10.5,9.6-17.6,9.6h-10.6c0,0,22-16.8,22-16.8l35.6-54.5Z"/>
    <path class="st3" d="M239.7,611.8l15.2,327.7c.4,8.9,7.8,15.9,16.7,15.9l428.1-1c9.2,0,16.7-7.5,16.6-16.8l-1.9-322.9c0-9.1-7.4-16.5-16.5-16.6l-441.4-3.9c-9.6,0-17.3,7.9-16.8,17.5Z"/>
    <path class="st19" d="M467,759.7s-16.9-15.9-32.4-2c-15.5,13.9,10.6,49.6,19.2,50.6,8.6,1,15.9-2.6,15.9-2.6,0,0,9.2,4.9,17.5,2.3,9.6-3,31.8-38,14.2-50-17.5-11.9-34.4,1.7-34.4,1.7Z"/>
    <path class="st19" d="M467.7,749.5s-2.3-9.9,4-20.2c6.3-10.3,15.9-14.9,15.9-14.9,0,0-.3,13.6-6.3,22.2-6,8.6-13.6,12.9-13.6,12.9Z"/>
    <path class="st21" d="M239.7,611.8l14.1,326.2c.4,10.3,9,18.4,19.3,18.2l54.8-.8s47.1-71.2,36.7-112.1c-10.5-40.8-61.8-18.9-74.4-68.1-12.6-49.2,34.6-52.4,31.4-98.4-3.3-48.2-81.9-65.1-81.9-65.1Z"/>
  </g>
  <g>
    <polygon class="st15" points="852.9 903.8 848 830.5 899.7 841 900.4 919.2 852.9 903.8"/>
    <polygon class="st1" points="899.7 841 963.9 824.9 958.3 898.9 900.4 919.2 899.7 841"/>
    <polygon class="st18" points="848 830.5 902 816.5 963.9 824.9 899.7 841 848 830.5"/>
    <path class="st14" d="M890.8,830.9s-23.2-12-30.4-27.2c-7.2-15.2-2.8-42.4-2.8-42.4,0,0,13.2,8,26.4,30.8,13.2,22.8,6.8,38.8,6.8,38.8Z"/>
    <path class="st14" d="M947.3,761.3s-23.2,12-30.4,27.2c-7.2,15.2-2.8,42.4-2.8,42.4,0,0,13.2-8,26.4-30.8,13.2-22.8,6.8-38.8,6.8-38.8Z"/>
    <path class="st4" d="M900.4,833.3s-11.9-24.1-11.2-44.7c.7-20.6,16.8-37.7,16.8-37.7,0,0,13.3,15,11.9,36.7-1.4,21.6-17.5,45.7-17.5,45.7Z"/>
  </g>
  <g>
    <circle class="st16" cx="215.4" cy="441.6" r="43.2"/>
    <polygon class="st19" points="214.1 417.5 221.2 432 237.2 434.3 225.6 445.6 228.4 461.5 214.1 454 199.8 461.5 202.5 445.6 191 434.3 206.9 432 214.1 417.5"/>
  </g>
  <g>
    <circle class="st18" cx="906" cy="287.3" r="59.3"/>
    <polygon class="st19" points="866.9 296.4 895.8 275 938.6 275 910.2 296.4 866.9 296.4"/>
    <path class="st19" d="M878,299.6v7.5c0,6,4.9,10.9,10.9,10.9h17.8c2.5,0,4.9-.8,6.8-2.4l11.1-8.9c4.3-3.5,6.9-8.7,6.9-14.3l-.3-7.1-20.6,14.7-32.5-.3Z"/>
    <path class="st17" d="M903.9,282.5s12.9-9.8,8.4-14.7c-4.5-4.9-7.7-6.3-5.2-11.5s11.2-3.5,11.2-3.5"/>
    <path class="st19" d="M924.8,253.3c0,1.9-1.6,3.5-3.5,3.5s-3.5-1.6-3.5-3.5,1.6-3.5,3.5-3.5,3.5,1.6,3.5,3.5Z"/>
    <polygon class="st19" points="926.4 254.7 933.9 258.7 935.3 255.6 933 254.5 936 254 935.5 250.7 926.7 252.1 926.4 254.7"/>
  </g>
</svg>